<?xml version="1.0" encoding="UTF-8" standalone="no"?>
<!-- Created with Inkscape (http://www.inkscape.org/) -->

<svg
   xmlns:dc="http://purl.org/dc/elements/1.1/"
   xmlns:cc="http://creativecommons.org/ns#"
   xmlns:rdf="http://www.w3.org/1999/02/22-rdf-syntax-ns#"
   xmlns:svg="http://www.w3.org/2000/svg"
   xmlns="http://www.w3.org/2000/svg"
   xmlns:sodipodi="http://sodipodi.sourceforge.net/DTD/sodipodi-0.dtd"
   xmlns:inkscape="http://www.inkscape.org/namespaces/inkscape"
   version="1.0"
   width="24.664473"
   height="57.05331"
   id="svg1783"
   inkscape:version="0.48.5 r10040"
   sodipodi:docname="Figure_rythmique_quadruple_croche_hampe_haut.svg">
  <metadata
     id="metadata12">
    <rdf:RDF>
      <cc:Work
         rdf:about="">
        <dc:format>image/svg+xml</dc:format>
        <dc:type
           rdf:resource="http://purl.org/dc/dcmitype/StillImage" />
        <dc:title></dc:title>
      </cc:Work>
    </rdf:RDF>
  </metadata>
  <sodipodi:namedview
     pagecolor="#ffffff"
     bordercolor="#666666"
     borderopacity="1"
     objecttolerance="10"
     gridtolerance="10"
     guidetolerance="10"
     inkscape:pageopacity="0"
     inkscape:pageshadow="2"
     inkscape:window-width="1920"
     inkscape:window-height="1018"
     id="namedview10"
     showgrid="false"
     fit-margin-top="0"
     fit-margin-left="0"
     fit-margin-right="0"
     fit-margin-bottom="0"
     inkscape:zoom="13.57553"
     inkscape:cx="-11.788621"
     inkscape:cy="26.087292"
     inkscape:window-x="-8"
     inkscape:window-y="-8"
     inkscape:window-maximized="1"
     inkscape:current-layer="g16548" />
  <defs
     id="defs1786" />
  <g
     transform="translate(-584.04046,-285.23269)"
     id="g16548">
    <path
       d="m 588.55919,286.48142 c -3.39584,1.81997 -5.20528,5.11455 -4.09222,7.59296 1.18726,2.64364 5.26701,3.38972 9.10658,1.66537 3.83956,-1.72436 5.99216,-5.2694 4.8049,-7.91303 -1.18727,-2.64364 -5.26701,-3.38972 -9.10658,-1.66537 -0.23997,0.10777 -0.48628,0.19874 -0.71268,0.32007 z"
       style="opacity:0.9;fill:#000000;fill-opacity:1;fill-rule:evenodd;stroke:none"
       id="path16534"
       inkscape:connector-curvature="0"
       transform="matrix(-1,0,0,-1,1182.7454,627.5187)" />
    <path
       d="m 584.92669,292.56481 0,41.08757"
       style="fill:none;stroke:#000000;stroke-width:1.5;stroke-linecap:butt;stroke-linejoin:miter;stroke-miterlimit:4;stroke-opacity:1;stroke-dasharray:none"
       id="path16536"
       inkscape:connector-curvature="0"
       transform="matrix(-1,0,0,-1.190213,1182.7454,683.16832)" />
    <path
       d="m 584.67204,332.94254 c -0.5625,-6.3125 4.84255,-8.57374 7.5,-11.5 2.52596,-2.78147 3.44867,-5.98972 3.34548,-8.9956 -0.0276,-0.80257 -0.24543,-4.28011 -2.61445,-7.76672 3.16792,8.74711 0.21847,12.25806 -2.66296,15.05158 -3.48994,3.38346 -6.08612,6.57218 -5.56807,13.21074 z"
       style="fill:#000000;fill-opacity:1;fill-rule:evenodd;stroke:none"
       id="path16538"
       inkscape:connector-curvature="0"
       transform="matrix(1,0,0,-1,13.0063,627.5187)" />
    <path
       d="m 584.55369,325.42059 c -0.5625,-6.3125 4.84255,-8.57374 7.5,-11.5 2.52596,-2.78147 3.44867,-5.98972 3.34548,-8.9956 -0.0276,-0.80257 -0.24543,-4.28011 -2.61445,-7.76672 3.16792,8.74711 0.21847,12.25806 -2.66296,15.05158 -3.48994,3.38346 -6.08612,6.57218 -5.56807,13.21074 z"
       style="fill:#000000;fill-opacity:1;fill-rule:evenodd;stroke:none"
       id="path16540"
       inkscape:connector-curvature="0"
       transform="matrix(1,0,0,-1,13.0063,627.5187)" />
    <path
       d="m 584.10639,318.49334 c -0.5625,-6.3125 4.84255,-8.57374 7.5,-11.5 2.52596,-2.78147 3.44867,-5.98972 3.34548,-8.9956 -0.0276,-0.80257 -0.24543,-4.28011 -2.61445,-7.76672 3.16792,8.74711 0.21847,12.25806 -2.66296,15.05158 -3.48994,3.38346 -6.08612,6.57218 -5.56807,13.21074 z"
       style="fill:#000000;fill-opacity:1;fill-rule:evenodd;stroke:none"
       id="path16546"
       inkscape:connector-curvature="0"
       transform="matrix(1,0,0,-1,13.0063,627.5187)" />
    <path
       inkscape:connector-curvature="0"
       transform="matrix(1,0,0,-1,13.1797,620.38617)"
       d="m 584.67204,332.94254 c -0.5625,-6.3125 4.84255,-8.57374 7.5,-11.5 2.52596,-2.78147 3.44867,-5.98972 3.34548,-8.9956 -0.0276,-0.80257 -0.24543,-4.28011 -2.61445,-7.76672 3.16792,8.74711 0.21847,12.25806 -2.66296,15.05158 -3.48994,3.38346 -6.08612,6.57218 -5.56807,13.21074 z"
       style="fill:#000000;fill-opacity:1;fill-rule:evenodd;stroke:none"
       id="path16538-7" />
  </g>
</svg>
